<?xml version="1.0" encoding="utf-8"?>
<!DOCTYPE svg PUBLIC "-//W3C//DTD SVG 20010904//EN" "http://www.w3.org/TR/2001/REC-SVG-20010904/DTD/svg10.dtd">
<svg xmlns="http://www.w3.org/2000/svg" xml:space="preserve" xmlns:xlink="http://www.w3.org/1999/xlink" width="204" height="124.539" viewBox="0 0 204 124.539">
<desc></desc>
<rect x="0" y="0" width="204" height="124.539" style="fill:#ffffff;" />
<line fill="none" style="stroke:#000000; stroke-width:6;" x1="3" y1="0" x2="3" y2="90"/>
<line fill="none" style="stroke:#000000; stroke-width:3;" x1="10.5" y1="0" x2="10.5" y2="90"/>
<line fill="none" style="stroke:#000000; stroke-width:3;" x1="25.5" y1="0" x2="25.5" y2="90"/>
<line fill="none" style="stroke:#000000; stroke-width:3;" x1="34.5" y1="0" x2="34.5" y2="90"/>
<line fill="none" style="stroke:#000000; stroke-width:6;" x1="42" y1="0" x2="42" y2="90"/>
<line fill="none" style="stroke:#000000; stroke-width:3;" x1="55.5" y1="0" x2="55.5" y2="90"/>
<line fill="none" style="stroke:#000000; stroke-width:3;" x1="67.5" y1="0" x2="67.5" y2="90"/>
<line fill="none" style="stroke:#000000; stroke-width:9;" x1="76.5" y1="0" x2="76.5" y2="90"/>
<line fill="none" style="stroke:#000000; stroke-width:6;" x1="93" y1="0" x2="93" y2="90"/>
<line fill="none" style="stroke:#000000; stroke-width:3;" x1="100.5" y1="0" x2="100.5" y2="90"/>
<line fill="none" style="stroke:#000000; stroke-width:6;" x1="114" y1="0" x2="114" y2="90"/>
<line fill="none" style="stroke:#000000; stroke-width:3;" x1="121.5" y1="0" x2="121.5" y2="90"/>
<line fill="none" style="stroke:#000000; stroke-width:3;" x1="133.5" y1="0" x2="133.5" y2="90"/>
<line fill="none" style="stroke:#000000; stroke-width:3;" x1="139.5" y1="0" x2="139.5" y2="90"/>
<line fill="none" style="stroke:#000000; stroke-width:6;" x1="153" y1="0" x2="153" y2="90"/>
<line fill="none" style="stroke:#000000; stroke-width:6;" x1="168" y1="0" x2="168" y2="90"/>
<line fill="none" style="stroke:#000000; stroke-width:9;" x1="184.5" y1="0" x2="184.5" y2="90"/>
<line fill="none" style="stroke:#000000; stroke-width:3;" x1="193.5" y1="0" x2="193.5" y2="90"/>
<line fill="none" style="stroke:#000000; stroke-width:6;" x1="201" y1="0" x2="201" y2="90"/>
<text x="102" y="117.632" text-anchor="middle" style="font-family: Tahoma; font-size: 32px; stroke: none; fill:#000000;">DNE</text></svg>