<?xml version="1.0" encoding="utf-8"?>
<!DOCTYPE svg PUBLIC "-//W3C//DTD SVG 20010904//EN" "http://www.w3.org/TR/2001/REC-SVG-20010904/DTD/svg10.dtd">
<svg xmlns="http://www.w3.org/2000/svg" xml:space="preserve" xmlns:xlink="http://www.w3.org/1999/xlink" width="237" height="124.539" viewBox="0 0 237 124.539">
<desc></desc>
<rect x="0" y="0" width="237" height="124.539" style="fill:#ffffff;" />
<line fill="none" style="stroke:#000000; stroke-width:6;" x1="3" y1="0" x2="3" y2="90"/>
<line fill="none" style="stroke:#000000; stroke-width:3;" x1="10.5" y1="0" x2="10.5" y2="90"/>
<line fill="none" style="stroke:#000000; stroke-width:3;" x1="25.5" y1="0" x2="25.5" y2="90"/>
<line fill="none" style="stroke:#000000; stroke-width:9;" x1="37.5" y1="0" x2="37.5" y2="90"/>
<line fill="none" style="stroke:#000000; stroke-width:9;" x1="49.5" y1="0" x2="49.5" y2="90"/>
<line fill="none" style="stroke:#000000; stroke-width:6;" x1="60" y1="0" x2="60" y2="90"/>
<line fill="none" style="stroke:#000000; stroke-width:9;" x1="70.5" y1="0" x2="70.5" y2="90"/>
<line fill="none" style="stroke:#000000; stroke-width:9;" x1="82.5" y1="0" x2="82.5" y2="90"/>
<line fill="none" style="stroke:#000000; stroke-width:6;" x1="93" y1="0" x2="93" y2="90"/>
<line fill="none" style="stroke:#000000; stroke-width:3;" x1="100.5" y1="0" x2="100.5" y2="90"/>
<line fill="none" style="stroke:#000000; stroke-width:6;" x1="111" y1="0" x2="111" y2="90"/>
<line fill="none" style="stroke:#000000; stroke-width:9;" x1="124.5" y1="0" x2="124.5" y2="90"/>
<line fill="none" style="stroke:#000000; stroke-width:3;" x1="133.5" y1="0" x2="133.5" y2="90"/>
<line fill="none" style="stroke:#000000; stroke-width:6;" x1="141" y1="0" x2="141" y2="90"/>
<line fill="none" style="stroke:#000000; stroke-width:3;" x1="154.5" y1="0" x2="154.5" y2="90"/>
<line fill="none" style="stroke:#000000; stroke-width:6;" x1="168" y1="0" x2="168" y2="90"/>
<line fill="none" style="stroke:#000000; stroke-width:9;" x1="178.5" y1="0" x2="178.5" y2="90"/>
<line fill="none" style="stroke:#000000; stroke-width:3;" x1="190.5" y1="0" x2="190.5" y2="90"/>
<line fill="none" style="stroke:#000000; stroke-width:6;" x1="201" y1="0" x2="201" y2="90"/>
<line fill="none" style="stroke:#000000; stroke-width:9;" x1="217.5" y1="0" x2="217.5" y2="90"/>
<line fill="none" style="stroke:#000000; stroke-width:3;" x1="226.5" y1="0" x2="226.5" y2="90"/>
<line fill="none" style="stroke:#000000; stroke-width:6;" x1="234" y1="0" x2="234" y2="90"/>
<text x="118.5" y="117.632" text-anchor="middle" style="font-family: Tahoma; font-size: 32px; stroke: none; fill:#000000;">PP.D</text></svg>